<?xml version="1.0" standalone="no"?><!DOCTYPE svg PUBLIC "-//W3C//DTD SVG 1.1//EN" "http://www.w3.org/Graphics/SVG/1.1/DTD/svg11.dtd"><svg t="1655269635701" class="icon" viewBox="0 0 1070 1024" version="1.1" xmlns="http://www.w3.org/2000/svg" p-id="5858" xmlns:xlink="http://www.w3.org/1999/xlink" width="208.984375" height="200"><defs><style type="text/css">@font-face { font-family: feedback-iconfont; src: url("//at.alicdn.com/t/font_1031158_u69w8yhxdu.woff2?t=1630033759944") format("woff2"), url("//at.alicdn.com/t/font_1031158_u69w8yhxdu.woff?t=1630033759944") format("woff"), url("//at.alicdn.com/t/font_1031158_u69w8yhxdu.ttf?t=1630033759944") format("truetype"); }
</style></defs><path d="M1070.689754 1024H0V83.70087a57.336257 57.336257 0 0 1 82.810435-51.354859l401.934518 199.496106V57.355614A57.336257 57.336257 0 0 1 566.316522 5.420038l504.373232 235.287712zM77.429112 946.570888h915.831531V290.030095L562.174064 88.927335v197.850737a43.360302 43.360302 0 0 1-62.659508 38.830699L77.429112 116.143667z" p-id="5859"></path><path d="M194.366427 422.588733h280.39017v152.070776H194.366427zM194.366427 657.837732h280.39017v152.070775H194.366427zM595.933157 422.588733h280.39017v152.070776H595.933157zM595.933157 657.837732h280.39017v152.070775H595.933157z" p-id="5860"></path></svg>