<?xml version="1.0" standalone="no"?><!DOCTYPE svg PUBLIC "-//W3C//DTD SVG 1.1//EN" "http://www.w3.org/Graphics/SVG/1.1/DTD/svg11.dtd"><svg t="1655269659551" class="icon" viewBox="0 0 1179 1024" version="1.1" xmlns="http://www.w3.org/2000/svg" p-id="6145" xmlns:xlink="http://www.w3.org/1999/xlink" width="230.2734375" height="200"><defs><style type="text/css">@font-face { font-family: feedback-iconfont; src: url("//at.alicdn.com/t/font_1031158_u69w8yhxdu.woff2?t=1630033759944") format("woff2"), url("//at.alicdn.com/t/font_1031158_u69w8yhxdu.woff?t=1630033759944") format("woff"), url("//at.alicdn.com/t/font_1031158_u69w8yhxdu.ttf?t=1630033759944") format("truetype"); }
</style></defs><path d="M974.795919 744.724626H876.592185a36.297813 36.297813 0 0 1 0-72.595626h55.463059l4.591673-0.217787A179.166005 179.166005 0 0 0 1107.083298 492.727059c0-98.167435-79.855189-178.639687-178.022624-179.383792l-28.221549-0.199638-6.751394-27.3867a280.745435 280.745435 0 0 0-525.193057-54.700804l-12.323107 25.408469-27.695232-5.716906a212.904823 212.904823 0 1 0-43.394035 421.381312c2.141571 0 4.446482 0 7.259562-0.127042l37.531939-1.270424v1.397466h6.96918a36.297813 36.297813 0 0 1 0 72.595626H257.714473v-1.32487C113.267326 729.370651 0 607.282957 0 459.169731 0 301.83686 128.058684 173.778176 285.4823 173.778176a290.164718 290.164718 0 0 1 30.853141 1.633401A353.177721 353.177721 0 0 1 621.545602 0.002396a349.54794 349.54794 0 0 1 219.42028 76.406896 355.718568 355.718568 0 0 1 116.044108 166.026197 252.052014 252.052014 0 0 1 17.785929 497.897102z" p-id="6146"></path><path d="M749.205011 606.956277h61.851473L612.053724 392.871775 413.032815 606.956277h61.851473v202.959222h-61.851473l199.020909 214.084501 199.00276-214.084501h-61.851473V606.956277z" p-id="6147"></path></svg>