<?xml version="1.0" standalone="no"?><!DOCTYPE svg PUBLIC "-//W3C//DTD SVG 1.1//EN" "http://www.w3.org/Graphics/SVG/1.1/DTD/svg11.dtd"><svg t="1655269645754" class="icon" viewBox="0 0 1291 1024" version="1.1" xmlns="http://www.w3.org/2000/svg" p-id="6001" xmlns:xlink="http://www.w3.org/1999/xlink" width="252.1484375" height="200"><defs><style type="text/css">@font-face { font-family: feedback-iconfont; src: url("//at.alicdn.com/t/font_1031158_u69w8yhxdu.woff2?t=1630033759944") format("woff2"), url("//at.alicdn.com/t/font_1031158_u69w8yhxdu.woff?t=1630033759944") format("woff"), url("//at.alicdn.com/t/font_1031158_u69w8yhxdu.ttf?t=1630033759944") format("truetype"); }
</style></defs><path d="M891.152117 466.486315l-142.833446 145.690116a10.249265 10.249265 0 0 1-14.514967 0.135112l-102.068009-100.060619a10.268567 10.268567 0 0 1-0.154414-14.514967l142.833446-145.690115a10.287869 10.287869 0 0 0-4.458719-17.062806A206.529443 206.529443 0 0 0 520.653738 611.674583l-144.474101 147.369374a10.268567 10.268567 0 0 0 0.154415 14.514966l101.295936 99.307849a10.268567 10.268567 0 0 0 14.514966-0.154414l144.474101-147.369374a206.529443 206.529443 0 0 0 271.673076-254.783985 10.287869 10.287869 0 0 0-17.140014-4.072684z" p-id="6002"></path><path d="M1252.385624 507.386866a38.44922 38.44922 0 0 1-21.926864-6.852145L642.351695 93.864736 60.691437 496.056699a38.603634 38.603634 0 1 1-43.911634-63.502978L642.351695 0l632.018698 437.031742a38.603634 38.603634 0 0 1-21.984769 70.355124z" p-id="6003"></path><path d="M1075.716092 1024h-860.281987a57.905451 57.905451 0 0 1-57.905452-57.905451V468.783232a38.603634 38.603634 0 0 1 77.207269 0v478.0095h821.678353V468.783232a38.603634 38.603634 0 0 1 77.207268 0v497.311317a57.905451 57.905451 0 0 1-57.905451 57.905451z" p-id="6004"></path></svg>